<?xml version="1.0" encoding="utf-8"?>
<!-- Generator: Adobe Illustrator 16.0.3, SVG Export Plug-In . SVG Version: 6.00 Build 0)  -->
<!DOCTYPE svg PUBLIC "-//W3C//DTD SVG 1.1//EN" "http://www.w3.org/Graphics/SVG/1.1/DTD/svg11.dtd">
<svg version="1.1" id="Warstwa_1" xmlns="http://www.w3.org/2000/svg" xmlns:xlink="http://www.w3.org/1999/xlink" x="0px" y="0px"
	 width="128px" height="128px" viewBox="0 0 128 128" enable-background="new 0 0 128 128" xml:space="preserve">
<g>
	<path fill="#1D1D1B" d="M120.063,53.808H23.979l26.174-26.258l-0.041-0.036c1.048-1.192,1.689-2.751,1.689-4.464
		c0-3.738-3.03-6.77-6.769-6.77c-1.712,0-3.271,0.641-4.463,1.689l-0.034-0.036L6.752,51.801c0,0-4.181,2.833-4.181,7.944
		c0,4.171,3.93,7.611,3.93,7.611l34.119,34.202l0.067-0.067c1.176,0.987,2.691,1.583,4.346,1.583c3.739,0,6.769-3.031,6.769-6.77
		c0-1.655-0.596-3.17-1.583-4.347l0.101-0.101L24.313,65.683h95.75c3.261,0,5.938-2.676,5.938-5.938
		C126,56.484,123.323,53.808,120.063,53.808z"/>
</g>
</svg>
