<?xml version="1.0" encoding="utf-8"?>
<!-- Generator: Adobe Illustrator 16.0.3, SVG Export Plug-In . SVG Version: 6.00 Build 0)  -->
<!DOCTYPE svg PUBLIC "-//W3C//DTD SVG 1.1//EN" "http://www.w3.org/Graphics/SVG/1.1/DTD/svg11.dtd">
<svg version="1.1" id="Warstwa_1" xmlns="http://www.w3.org/2000/svg" xmlns:xlink="http://www.w3.org/1999/xlink" x="0px" y="0px"
	 width="128px" height="128px" viewBox="0 0 128 128" enable-background="new 0 0 128 128" xml:space="preserve">
<g>
	<g>
		<path fill-rule="evenodd" clip-rule="evenodd" d="M118.711,13.161H10.289c-4.281,0-7.745,3.464-7.745,7.745v85.189
			c0,4.28,3.464,7.744,7.745,7.744h108.422c4.281,0,7.744-3.464,7.744-7.744V20.906C126.455,16.625,122.992,13.161,118.711,13.161z
			 M114.839,102.223H14.161V51.883h100.678V102.223z M114.839,40.267H14.161V24.778h100.678V40.267z M76.116,86.733H99.35
			c2.141,0,3.873-1.732,3.873-3.872v-3.872c0-2.141-1.732-3.873-3.873-3.873H76.116c-2.14,0-3.872,1.732-3.872,3.873v3.872
			C72.244,85.001,73.977,86.733,76.116,86.733z"/>
	</g>
</g>
</svg>
