<?xml version="1.0" encoding="utf-8"?>
<!-- Generator: Adobe Illustrator 16.0.3, SVG Export Plug-In . SVG Version: 6.00 Build 0)  -->
<!DOCTYPE svg PUBLIC "-//W3C//DTD SVG 1.1//EN" "http://www.w3.org/Graphics/SVG/1.1/DTD/svg11.dtd">
<svg version="1.1" id="Warstwa_1" xmlns="http://www.w3.org/2000/svg" xmlns:xlink="http://www.w3.org/1999/xlink" x="0px" y="0px"
	 width="128px" height="128px" viewBox="0 0 128 128" enable-background="new 0 0 128 128" xml:space="preserve">
<g>
	<path d="M124.441,31.319c0.916-1.467,1.559-3.117,1.559-5.042c0-5.41-4.4-9.81-9.809-9.81c-1.927,0-3.576,0.642-5.043,1.558
		l-1.283-1.191L44.131,82.477L17.728,56.073l-1.283,1.284c-1.469-0.917-3.117-1.559-5.043-1.559c-5.41,0-9.811,4.401-9.811,9.81
		c0,1.834,0.643,3.484,1.559,5.043l-1.19,1.285l35.846,35.847l1.284-1.191c1.559,0.916,3.209,1.558,5.042,1.558
		c1.925,0,3.576-0.642,5.043-1.558l1.283,1.191l75.269-75.179L124.441,31.319z"/>
</g>
</svg>
