<?xml version="1.0" encoding="utf-8"?>
<!-- Generator: Adobe Illustrator 16.0.3, SVG Export Plug-In . SVG Version: 6.00 Build 0)  -->
<!DOCTYPE svg PUBLIC "-//W3C//DTD SVG 1.1//EN" "http://www.w3.org/Graphics/SVG/1.1/DTD/svg11.dtd">
<svg version="1.1" id="Warstwa_1" xmlns="http://www.w3.org/2000/svg" xmlns:xlink="http://www.w3.org/1999/xlink" x="0px" y="0px"
	 width="128px" height="128px" viewBox="0 0 128 128" enable-background="new 0 0 128 128" xml:space="preserve">
<g>
	<path d="M16.903,67.029v51.804c0,3.138,2.536,5.675,5.675,5.675c3.019,0,5.555-2.537,5.555-5.675V67.029
		c8.694-2.416,15.094-10.385,15.094-19.924c0-9.419-6.399-17.388-15.094-19.924V9.43c0-3.14-2.536-5.675-5.555-5.675
		c-3.14,0-5.675,2.535-5.675,5.675v17.75C8.209,29.717,1.809,37.686,1.809,47.105C1.809,56.644,8.209,64.613,16.903,67.029z
		 M22.579,37.686c5.192,0,9.418,4.227,9.418,9.419s-4.226,9.418-9.418,9.418c-5.192,0-9.539-4.226-9.539-9.418
		S17.387,37.686,22.579,37.686z M58.321,101.082v17.751c0,3.138,2.536,5.675,5.676,5.675c3.139,0,5.675-2.537,5.675-5.675v-17.751
		c8.694-2.536,15.095-10.505,15.095-19.926c0-9.538-6.4-17.509-15.095-20.044V9.43c0-3.14-2.536-5.675-5.675-5.675
		c-3.14,0-5.676,2.535-5.676,5.675v51.682c-8.695,2.535-15.094,10.506-15.094,20.044C43.227,90.577,49.626,98.546,58.321,101.082z
		 M63.997,71.618c5.192,0,9.418,4.226,9.418,9.538c0,5.193-4.226,9.421-9.418,9.421s-9.419-4.228-9.419-9.421
		C54.578,75.844,58.805,71.618,63.997,71.618z M99.86,67.029v51.804c0,3.138,2.536,5.675,5.675,5.675
		c3.14,0,5.677-2.537,5.677-5.675V67.029c8.693-2.416,15.093-10.385,15.093-19.924c0-9.419-6.399-17.388-15.093-19.924V9.43
		c0-3.14-2.537-5.675-5.677-5.675c-3.139,0-5.675,2.535-5.675,5.675v17.75c-8.694,2.536-15.094,10.505-15.094,19.924
		C84.767,56.644,91.166,64.613,99.86,67.029z M105.535,37.686c5.192,0,9.419,4.227,9.419,9.419s-4.227,9.418-9.419,9.418
		s-9.419-4.226-9.419-9.418S100.343,37.686,105.535,37.686z"/>
</g>
</svg>
