<?xml version="1.0" encoding="utf-8"?>
<!-- Generator: Adobe Illustrator 16.0.3, SVG Export Plug-In . SVG Version: 6.00 Build 0)  -->
<!DOCTYPE svg PUBLIC "-//W3C//DTD SVG 1.1//EN" "http://www.w3.org/Graphics/SVG/1.1/DTD/svg11.dtd">
<svg version="1.1" id="Warstwa_1" xmlns="http://www.w3.org/2000/svg" xmlns:xlink="http://www.w3.org/1999/xlink" x="0px" y="0px"
	 width="128px" height="128px" viewBox="0 0 128 128" enable-background="new 0 0 128 128" xml:space="preserve">
<g>
	<path d="M92.62,12c9.506,0,17.888,4.293,23.202,10.732c3.885,4.702,5.929,6.733,7.054,12.866l1.124,4v6.542v0.205
		c0,0.92,0,1.022,0,0.204c0-1.124,0-0.919,0,0.205c0,1.431-0.103,1.738-0.103,1.329c0,0.102,0,0.102,0,0.205
		c-0.919,21.566-15.945,37.922-29.744,48.654c-13.901,10.937-27.496,16.763-27.496,16.763L64,114.727l-2.658-1.022
		c0,0-13.595-5.826-27.496-16.763C20.047,86.106,5.021,69.854,4.102,48.287C4.205,48.798,4,48.287,4,46.753c0-1.124,0-1.329,0-0.205
		c0,0.716,0,0.716,0-0.204V46.14v-6.542l1.124-4c1.125-6.133,3.271-8.164,7.257-12.866C17.696,16.294,25.874,12,35.38,12
		c14.821,0,22.794,5.724,28.518,11.346c1.942-2.044,3.271-4.088,6.235-5.928C75.551,14.045,82.808,12,92.62,12z M92.62,25.289
		c-7.973,0-12.368,1.533-15.537,3.475c-3.168,1.942-5.213,4.6-7.768,7.768L64,43.278l-5.315-6.747
		c-5.008-6.337-7.768-11.243-23.305-11.243c-5.724,0-9.608,2.249-12.777,6.03c-3.066,3.68-5.111,9.097-5.315,15.026c0,0,0,0,0,0.102
		c0.103,0,0-0.307,0,0.102c0,1.329,0,1.125,0,0.205c0-0.818,0.103-0.613,0.205,0.818v0.103
		c0.613,15.639,12.164,29.131,24.532,38.739C52.246,94.386,60.832,98.576,64,100.008c3.271-1.432,11.755-5.622,21.976-13.595
		c12.368-9.608,24.021-23.101,24.532-38.739v-0.103c0.102-1.431,0.204-1.636,0.204-0.818c0,0.92,0,1.125,0-0.205
		c0-0.511-0.103-0.102,0-0.102c0-0.102,0-0.102,0-0.102c-0.204-5.929-2.146-11.346-5.213-15.026
		C102.433,27.537,98.344,25.289,92.62,25.289z"/>
</g>
</svg>
