<?xml version="1.0" encoding="utf-8"?>
<!-- Generator: Adobe Illustrator 16.0.3, SVG Export Plug-In . SVG Version: 6.00 Build 0)  -->
<!DOCTYPE svg PUBLIC "-//W3C//DTD SVG 1.1//EN" "http://www.w3.org/Graphics/SVG/1.1/DTD/svg11.dtd">
<svg version="1.1" id="Warstwa_1" xmlns="http://www.w3.org/2000/svg" xmlns:xlink="http://www.w3.org/1999/xlink" x="0px" y="0px"
	 width="128px" height="128px" viewBox="0 0 128 128" enable-background="new 0 0 128 128" xml:space="preserve">
<g>
	<path d="M6.159,126.707h39.034c2.119,0,3.866-1.746,3.866-3.866v-11.723h11.723c2.12,0,3.866-1.745,3.866-3.865V95.53h11.723
		c2.12,0,3.865-1.746,3.865-3.865v-8.48l3.492-3.492c1.496,0.125,2.868,0.249,4.24,0.249C109.54,79.941,127,62.483,127,40.909
		C127,19.459,109.54,2,87.967,2C66.518,2,49.058,19.459,49.058,40.909c0,1.746,0.124,3.492,0.374,5.113L5.037,89.545
		c-1.497,1.497-2.744,4.489-2.744,6.609v26.687C2.293,124.961,4.039,126.707,6.159,126.707z M14.015,98.772L62.651,51.01
		c-0.749-1.995-1.247-3.99-1.497-6.11c-0.25-1.247-0.374-2.494-0.374-3.991c0-0.998,0.125-1.996,0.249-2.993
		C62.651,24.323,74,13.723,87.967,13.723c15.09,0,27.311,12.221,27.311,27.186c0,15.09-12.221,27.312-27.311,27.312
		c-3.242,0-6.36-0.625-9.229-1.747L68.513,76.7v7.108H52.923v15.589H37.335v15.587h-23.32V98.772z M91.957,44.9
		c4.239,0,7.732-3.492,7.732-7.857c0-4.24-3.493-7.731-7.732-7.731c-4.364,0-7.856,3.491-7.856,7.731
		C84.101,41.408,87.593,44.9,91.957,44.9z"/>
</g>
</svg>
