<?xml version="1.0" encoding="utf-8"?>
<!-- Generator: Adobe Illustrator 16.0.3, SVG Export Plug-In . SVG Version: 6.00 Build 0)  -->
<!DOCTYPE svg PUBLIC "-//W3C//DTD SVG 1.1//EN" "http://www.w3.org/Graphics/SVG/1.1/DTD/svg11.dtd">
<svg version="1.1" id="Warstwa_1" xmlns="http://www.w3.org/2000/svg" xmlns:xlink="http://www.w3.org/1999/xlink" x="0px" y="0px"
	 width="128px" height="128px" viewBox="0 0 128 128" enable-background="new 0 0 128 128" xml:space="preserve">
<path d="M71.775,1.29C32.771,1.29,1.147,29.4,1.147,64.071c0,15.923,7.307,30.139,18.742,39.497
	c-1.426,5.479-2.449,11.097-3.016,16.814c-0.322,3.234,2.039,6.115,5.272,6.438c0.199,0.022,0.395,0.03,0.59,0.03
	c2.989,0,5.549-2.269,5.848-5.304c0.383-3.847,1.011-7.647,1.832-11.38c6.603,3.118,13.956,4.912,21.742,4.912
	c28.172,0,51.009-22.838,51.009-51.007c0-17.051,9.584-31.566,23.544-39.238C113.757,10.67,93.904,1.29,71.775,1.29z M91.394,64.071
	c0,21.632-17.603,39.236-39.237,39.236c-6.671,0-12.952-1.678-18.458-4.629c6.652-18.937,18.979-35.591,35.613-47.474
	c1.322-0.943,2.134-2.337,2.383-3.825c0.25-1.482-0.072-3.065-1.015-4.383c-0.947-1.326-2.338-2.142-3.825-2.388
	c-1.486-0.249-3.065,0.073-4.387,1.016C44.892,54.181,31.595,71.487,23.889,91.213c-6.779-7.05-10.971-16.606-10.971-27.142
	c0-28.125,26.401-51.009,58.857-51.009c13.296,0,26.003,3.951,36.356,11.104C97.563,34.658,91.394,48.951,91.394,64.071z"/>
</svg>
