<?xml version="1.0" encoding="utf-8"?>
<!-- Generator: Adobe Illustrator 16.0.3, SVG Export Plug-In . SVG Version: 6.00 Build 0)  -->
<!DOCTYPE svg PUBLIC "-//W3C//DTD SVG 1.1//EN" "http://www.w3.org/Graphics/SVG/1.1/DTD/svg11.dtd">
<svg version="1.1" id="Warstwa_1" xmlns="http://www.w3.org/2000/svg" xmlns:xlink="http://www.w3.org/1999/xlink" x="0px" y="0px"
	 width="128px" height="128px" viewBox="0 0 128 128" enable-background="new 0 0 128 128" xml:space="preserve">
<g>
	<path d="M22.532,126.358h83.187c7.108,0,12.97-5.861,12.97-12.97V61.381c0-7.108-5.861-12.97-12.97-12.97H95.242V31.574l0,0
		c-0.75-16.712-14.343-29.931-31.18-29.931c-17.21,0-31.178,13.968-31.178,31.178v15.59H22.532c-7.108,0-12.97,5.861-12.97,12.97
		v52.008C9.562,120.497,15.424,126.358,22.532,126.358z M36.875,47.912V35.439H37c-0.125-0.872-0.125-1.745-0.125-2.619
		c0-15.091,12.222-27.312,27.187-27.312c15.091,0,27.313,12.221,27.313,27.312c0,0.874,0,1.747-0.125,2.619h0.125v12.472v0.5h-54.5
		V47.912z M13.429,62.753c0-5.737,4.739-10.476,10.476-10.476h80.442c5.737,0,10.475,4.739,10.475,10.476v49.264
		c0,5.736-4.737,10.475-10.475,10.475H23.904c-5.737,0-10.476-4.738-10.476-10.475V62.753z"/>
</g>
</svg>
