<?xml version="1.0" encoding="utf-8"?>
<!-- Generator: Adobe Illustrator 16.0.3, SVG Export Plug-In . SVG Version: 6.00 Build 0)  -->
<!DOCTYPE svg PUBLIC "-//W3C//DTD SVG 1.1//EN" "http://www.w3.org/Graphics/SVG/1.1/DTD/svg11.dtd">
<svg version="1.1" id="Warstwa_1" xmlns="http://www.w3.org/2000/svg" xmlns:xlink="http://www.w3.org/1999/xlink" x="0px" y="0px"
	 width="128px" height="128px" viewBox="0 0 128 128" enable-background="new 0 0 128 128" xml:space="preserve">
<g>
	<path d="M62.467,13.994c-8.996,5.871-16.491,14.117-22.488,23.362C25.363,38.23,11.745,45.601,3.124,57.595
		C2.375,58.594,2,59.844,2,61.093c0,0.75,0.25,1.499,0.5,2.124c0.751,1.874,2.499,3.248,4.499,3.623
		c5.247,0.874,10.994,3.248,16.989,6.746c-1.124,3.873-1.998,7.621-2.622,11.244c0,0.25-0.126,0.624-0.126,1
		c0,1.498,0.625,2.998,1.749,4.122l15.867,15.866c1.374,1.372,3.372,1.873,5.247,1.624c3.498-0.625,7.245-1.5,11.118-2.499
		c3.498,5.87,5.873,11.618,6.747,16.865c0.375,1.998,1.749,3.747,3.498,4.497c1.874,0.75,3.998,0.501,5.747-0.626
		c11.992-8.62,19.363-22.236,20.238-36.852c9.246-5.997,17.49-13.493,23.362-22.488c11.118-17.115,11.994-37.479,11.994-58.467
		c0-3.249-2.625-5.873-5.872-5.873C100.697,2,79.583,2.875,62.467,13.994z M14.869,58.72c5.247-5.248,11.744-8.996,18.864-10.745
		c-2.624,5.372-4.872,10.745-6.747,15.991C22.864,61.718,18.866,59.968,14.869,58.72z M70.088,113.938
		c-1.248-3.999-2.997-7.995-5.247-11.994c5.247-1.996,10.62-4.245,15.991-6.869C79.083,102.195,75.335,108.69,70.088,113.938z
		 M104.943,59.968C92.826,78.583,66.59,90.951,44.977,95.325L33.482,83.831c4.373-21.614,16.742-47.849,35.357-59.967
		c12.991-8.371,29.107-9.87,46.223-10.12C114.813,30.86,113.313,46.976,104.943,59.968z M76.085,42.978
		c0,5.373,4.372,9.745,9.745,9.745c5.372,0,9.744-4.373,9.744-9.745c0-5.372-4.372-9.744-9.744-9.744
		C80.457,33.233,76.085,37.605,76.085,42.978z M22.24,118.684c3.998-1.248,6.996-4.87,6.996-9.367c0-5.372-4.373-9.744-9.746-9.744
		c-4.497,0-8.12,2.997-9.369,6.996l-4.248,13.864c-0.125,0.252-0.125,0.377-0.125,0.626c0,1.123,0.875,1.998,1.999,1.998
		c0.124,0,0.374-0.125,0.5-0.125L22.24,118.684z"/>
</g>
</svg>
