<?xml version="1.0" encoding="utf-8"?>
<!-- Generator: Adobe Illustrator 16.0.3, SVG Export Plug-In . SVG Version: 6.00 Build 0)  -->
<!DOCTYPE svg PUBLIC "-//W3C//DTD SVG 1.1//EN" "http://www.w3.org/Graphics/SVG/1.1/DTD/svg11.dtd">
<svg version="1.1" id="Warstwa_1" xmlns="http://www.w3.org/2000/svg" xmlns:xlink="http://www.w3.org/1999/xlink" x="0px" y="0px"
	 width="128px" height="128px" viewBox="0 0 128 128" enable-background="new 0 0 128 128" xml:space="preserve">
<g>
	<path d="M68.455,74.793l32.204,32.203c1.974,1.975,3.208,4.688,3.208,7.773c0,6.045-4.936,10.857-10.858,10.857
		c-3.084,0-5.799-1.234-7.772-3.208L34.527,71.585c-1.975-1.974-3.208-4.688-3.208-7.65c0-2.96,1.233-5.675,3.208-7.649
		L85.236,5.452c1.975-1.974,4.688-3.208,7.772-3.208c5.923,0,10.858,4.811,10.858,10.857c0,3.084-1.234,5.799-3.208,7.772
		L68.455,53.078L57.599,63.935L68.455,74.793z"/>
</g>
</svg>
