<?xml version="1.0" encoding="utf-8"?>
<!-- Generator: Adobe Illustrator 16.0.3, SVG Export Plug-In . SVG Version: 6.00 Build 0)  -->
<!DOCTYPE svg PUBLIC "-//W3C//DTD SVG 1.1//EN" "http://www.w3.org/Graphics/SVG/1.1/DTD/svg11.dtd">
<svg version="1.1" id="Warstwa_1" xmlns="http://www.w3.org/2000/svg" xmlns:xlink="http://www.w3.org/1999/xlink" x="0px" y="0px"
	 width="128px" height="128px" viewBox="0 0 128 128" enable-background="new 0 0 128 128" xml:space="preserve">
<g>
	<path d="M2.05,72.02c3.52,28.031,26.02,50.654,53.8,54.174c2.765,0.381,5.531,0.506,8.171,0.506
		c37.207,0,66.745-32.682,61.969-71.021C122.47,27.648,99.97,5.022,72.19,1.502C69.425,1.125,66.658,1,64.021,1l0,0v11.816
		c2.137,0,4.4,0.125,6.662,0.376c22.499,2.891,40.851,21.369,43.742,43.995c1.761,14.957-2.513,29.287-12.318,40.475
		c-1.885,2.137-4.022,4.023-6.285,5.908c-2.891-1.76-6.913-4.275-12.695-7.67c-2.011-1.129-3.268-3.391-3.142-5.529
		c0.25-1.131,1.507-3.645,2.387-5.406c1.132-2.135,2.138-4.273,2.641-6.158c1.132-3.645,2.011-10.557,2.263-13.322
		c0.377-3.018,0.627-9.554,0.377-12.069c-1.006-10.81-14.581-21.116-27.276-21.242c-0.125,0-0.125,0-0.125,0
		c-16.09,0-18.981,12.067-19.358,18.604c0,1.005-0.125,1.885-0.125,2.765c-0.251,2.765,0,9.427,0.251,12.192
		c0.377,2.766,1.131,9.553,2.263,13.072c0.502,2.012,1.634,4.023,2.766,6.285c0.753,1.635,2.011,4.148,2.262,5.154
		c0.125,2.387-1.006,4.648-3.142,5.783c-6.16,3.643-9.805,6.283-12.318,8.043C22.54,95.9,15.375,83.961,13.615,70.512
		c-1.886-14.959,2.514-29.288,12.319-40.476c9.678-10.936,23.505-17.22,38.087-17.22V1C26.813,1-2.726,33.681,2.05,72.02z
		 M50.947,106.334c6.034-3.52,9.553-10.055,9.05-16.844c0-0.627-0.125-1.254-0.251-1.633c-0.503-2.514-1.885-5.404-3.269-8.045
		c-0.754-1.508-1.759-3.393-2.01-4.271c-0.503-1.887-1.258-6.16-1.76-11.188c-0.376-2.641-0.502-8.297-0.376-9.679
		c0.125-1.006,0.25-2.137,0.25-3.268c0.503-8.296,3.645-7.291,7.668-7.417c7.792,0,15.334,6.788,15.711,10.558
		c0.127,1.383,0,7.039-0.25,9.679c-0.504,4.024-1.259,9.051-1.886,11.186c-0.253,0.881-1.131,2.641-1.886,4.275
		c-1.383,2.766-2.892,5.656-3.395,8.17c-0.124,0.379-0.124,0.879-0.251,1.383c-0.504,6.789,3.016,13.449,8.925,16.842
		c2.891,1.762,5.278,3.143,7.416,4.4c-6.411,2.891-13.45,4.4-20.614,4.4c-2.263,0-4.4-0.125-6.663-0.377
		c-4.777-0.629-9.302-1.885-13.45-3.771C45.794,109.479,48.056,107.969,50.947,106.334z M64.021,1L64.021,1L64.021,1L64.021,1z"/>
</g>
</svg>
