<?xml version="1.0" encoding="utf-8"?>
<!-- Generator: Adobe Illustrator 16.0.3, SVG Export Plug-In . SVG Version: 6.00 Build 0)  -->
<!DOCTYPE svg PUBLIC "-//W3C//DTD SVG 1.1//EN" "http://www.w3.org/Graphics/SVG/1.1/DTD/svg11.dtd">
<svg version="1.1" id="Warstwa_1" xmlns="http://www.w3.org/2000/svg" xmlns:xlink="http://www.w3.org/1999/xlink" x="0px" y="0px"
	 width="128px" height="128px" viewBox="0 0 128 128" enable-background="new 0 0 128 128" xml:space="preserve">
<g>
	<path d="M64.038,126.076c-8.809,0-16.006-6.079-18.364-14.145c-0.868-0.372-1.612-0.745-2.481-1.117
		c-7.32,4.095-16.75,3.351-23.078-2.853c-6.204-6.329-6.947-15.635-2.853-23.078c-0.373-0.869-0.745-1.614-1.117-2.482
		C8.079,80.044,2,72.847,2,64.038c0-8.809,6.079-16.006,14.145-18.364c0.373-0.868,0.745-1.612,1.117-2.481
		c-4.094-7.32-3.351-16.75,2.853-23.078c6.328-6.204,15.758-6.947,23.078-2.853c0.869-0.373,1.614-0.745,2.481-1.117
		C48.032,8.079,55.229,2,64.038,2c8.809,0,16.006,6.079,18.363,14.145c0.868,0.373,1.613,0.745,2.482,1.117
		c7.443-4.094,16.749-3.351,23.078,2.853c6.203,6.328,6.947,15.758,2.853,23.078c0.372,0.869,0.745,1.614,1.117,2.481
		c8.065,2.357,14.145,9.555,14.145,18.364c0,8.809-6.079,16.006-14.145,18.363c-0.372,0.868-0.745,1.613-1.117,2.482
		c4.095,7.443,3.351,16.749-2.853,23.078c-6.329,6.203-15.635,6.947-23.078,2.853c-0.869,0.372-1.614,0.745-2.482,1.117
		C80.044,119.997,72.847,126.076,64.038,126.076z M64.038,115.405c4.715,0,8.313-3.35,8.809-7.94l0.249-3.599l3.35-0.992
		c2.109-0.745,4.22-1.613,6.204-2.605l3.102-1.612l2.73,2.232c3.599,2.978,8.561,2.729,11.911-0.496
		c3.226-3.351,3.474-8.313,0.496-11.911l-2.232-2.73l1.612-3.102c0.992-1.984,1.86-4.095,2.605-6.204l0.992-3.35l3.599-0.249
		c4.591-0.495,7.94-4.094,7.94-8.809c0-4.591-3.35-8.313-7.94-8.686l-3.599-0.372l-0.992-3.35c-0.745-2.109-1.613-4.219-2.605-6.204
		l-1.612-3.102l2.232-2.729c2.978-3.599,2.729-8.561-0.496-11.912c-3.351-3.225-8.313-3.473-11.911-0.496l-2.73,2.233l-3.102-1.613
		c-1.984-0.992-4.095-1.86-6.204-2.481l-3.35-1.116l-0.249-3.599c-0.495-4.591-4.094-7.941-8.809-7.941
		c-4.591,0-8.313,3.35-8.686,7.941L54.98,24.21l-3.35,1.116c-2.109,0.621-4.219,1.489-6.204,2.481l-3.102,1.613l-2.729-2.233
		c-3.599-2.978-8.561-2.729-11.912,0.496c-3.225,3.351-3.473,8.313-0.496,11.912l2.233,2.729l-1.613,3.102
		c-0.992,1.985-1.86,4.094-2.481,6.204l-1.116,3.35l-3.599,0.372c-4.591,0.373-7.941,4.094-7.941,8.686
		c0,4.715,3.35,8.313,7.941,8.809l3.599,0.249l1.116,3.35c0.621,2.109,1.489,4.22,2.481,6.204l1.613,3.102l-2.233,2.73
		c-2.978,3.599-2.729,8.561,0.496,11.911c3.351,3.226,8.313,3.474,11.912,0.496l2.729-2.232l3.102,1.612
		c1.985,0.992,4.094,1.86,6.204,2.605l3.35,0.992l0.373,3.599C55.725,112.056,59.447,115.405,64.038,115.405z M64.038,78.803
		c-8.065,0-14.765-6.699-14.765-14.765s6.699-14.765,14.765-14.765s14.765,6.699,14.765,14.765S72.104,78.803,64.038,78.803z
		 M64.038,68.133c2.357,0,4.095-1.737,4.095-4.095s-1.737-4.094-4.095-4.094s-4.094,1.737-4.094,4.094S61.681,68.133,64.038,68.133z
		"/>
</g>
</svg>
