<?xml version="1.0" encoding="utf-8"?>
<!-- Generator: Adobe Illustrator 16.0.3, SVG Export Plug-In . SVG Version: 6.00 Build 0)  -->
<!DOCTYPE svg PUBLIC "-//W3C//DTD SVG 1.1//EN" "http://www.w3.org/Graphics/SVG/1.1/DTD/svg11.dtd">
<svg version="1.1" id="Warstwa_1" xmlns="http://www.w3.org/2000/svg" xmlns:xlink="http://www.w3.org/1999/xlink" x="0px" y="0px"
	 width="128px" height="128px" viewBox="0 0 128 128" enable-background="new 0 0 128 128" xml:space="preserve">
<g>
	<path d="M62.286,4.017c0,0-10.825,13.437-10.825,27.497c0,1.12,0,2.115,0.125,3.11c-9.954-3.235-20.281-3.857-26.627,2.364
		c-3.857,3.982-8.958,15.802-14.557,29.738c-0.871,2.238-1.742,4.354-2.489,6.221c-1.244,2.986-2.115,5.475-2.986,7.963
		C2.813,87.13,1.692,92.231,1.692,96.586c0,4.231,0.996,7.839,2.861,11.198c1.369,2.488,3.235,4.853,5.724,7.341l0.125,0.249
		l0.125,0.125c2.363,2.239,4.604,3.98,6.968,5.35c7.216,4.105,15.304,3.982,27.995-0.374c2.239-0.87,4.604-1.741,7.216-2.861
		c1.866-0.746,3.857-1.492,5.847-2.363l0.498-0.125c10.576-4.229,25.009-9.953,29.489-14.185c0.123-0.123,0.247-0.248,0.247-0.248
		l0.249-0.249c3.608-3.608,5.102-8.461,5.102-13.687c0-2.861-0.622-5.972-1.368-8.958c0.995,0.124,2.115,0.248,3.111,0.248
		c16.671,0,30.234-10.575,30.234-10.575s-9.954-13.562-23.268-17.419c0.871-0.747,1.741-1.493,2.488-2.24
		c13.313-13.188,13.812-34.34,13.812-37.948c0-0.25,0-0.498,0-0.498S95.01,8.744,80.576,23.053
		c-0.622,0.746-1.244,1.493-1.866,2.115C73.235,12.103,62.286,4.017,62.286,4.017z M83.438,86.757c0,4.105-1.368,5.724-1.991,6.222
		l-0.124,0.249c-3.234,2.861-19.41,9.332-26.252,12.068l-0.498,0.248c-2.116,0.748-4.105,1.618-5.972,2.365
		c-2.364,0.995-4.604,1.866-6.594,2.488c-12.194,4.354-16.299,2.986-19.161,1.244c-1.494-0.746-2.986-1.99-4.728-3.732l-0.374-0.249
		c-1.742-1.742-2.986-3.359-3.857-4.977c-1.12-1.866-1.493-3.732-1.493-6.098c0-3.109,0.871-7.092,2.613-12.193
		c0.747-2.364,1.742-4.727,2.737-7.341c0.871-1.99,1.742-4.105,2.612-6.346c2.862-6.967,9.332-23.267,12.194-26.253
		c3.234-3.234,13.188-1.742,24.014,3.609c3.234,5.848,7.341,10.326,10.202,13.063c0,0.249,0,0.374,0,0.374s0.249,0,0.374,0
		c2.239,2.613,6.718,7.34,12.691,11.198C82.069,77.923,83.438,82.899,83.438,86.757z M108.696,64.982
		c-3.733,1.369-8.089,2.489-12.815,2.489c-2.614,0-5.227-0.871-7.839-2.239c-0.248-0.498-0.373-0.871-0.622-1.37
		c-0.125-0.124-0.996-1.12-2.24-2.488c3.235-0.995,6.844-1.866,10.701-1.866C100.359,59.508,104.839,61.997,108.696,64.982z
		 M107.202,21.186c-1.243,6.221-3.98,13.811-9.332,19.162c-5.35,5.35-12.938,7.963-19.16,9.332c0.124-0.747,0.373-1.369,0.622-2.115
		c0.373-1.12,0.622-2.364,0.996-3.484c1.492-4.728,3.98-9.704,7.838-13.562C93.516,25.168,100.981,22.555,107.202,21.186z
		 M70.125,33.131c0.373,0.996,0.497,2.239,0.497,3.484c0,1.493-0.249,2.861-0.497,4.355c-0.498,1.369-0.871,2.737-1.244,4.105
		c-1.618-1.617-2.986-2.985-4.106-3.981c-0.871-1.867-1.742-3.858-2.239-5.973c-0.249-1.12-0.498-2.239-0.498-3.608
		c0-3.235,0.995-6.843,2.364-10.079C66.765,24.67,69.005,28.651,70.125,33.131z"/>
</g>
</svg>
