<?xml version="1.0" encoding="utf-8"?>
<!-- Generator: Adobe Illustrator 16.0.3, SVG Export Plug-In . SVG Version: 6.00 Build 0)  -->
<!DOCTYPE svg PUBLIC "-//W3C//DTD SVG 1.1//EN" "http://www.w3.org/Graphics/SVG/1.1/DTD/svg11.dtd">
<svg version="1.1" id="Warstwa_1" xmlns="http://www.w3.org/2000/svg" xmlns:xlink="http://www.w3.org/1999/xlink" x="0px" y="0px"
	 width="128px" height="128px" viewBox="0 0 128 128" enable-background="new 0 0 128 128" xml:space="preserve">
<g>
	<path d="M65.383,7c1.182,1.395,2.814,2.333,4.615,2.653l20.649,23.073l22.034-9.921c0.878,4.241,5.029,6.97,9.272,6.092
		c0.582-0.122,1.147-0.308,1.688-0.555c0,0,4.615,21.573-0.23,44.07c-2.423,11.189-7.268,22.956-16.844,32.069
		c-9.575,9.114-23.533,15.113-42.338,15.113c-18.689,0-32.763-5.999-42.338-15.113C12.316,95.367,7.355,83.6,4.932,72.41
		C0.203,49.914,4.818,28.341,4.818,28.341c3.844,1.996,8.58,0.498,10.575-3.348c0.339-0.654,0.585-1.352,0.73-2.073l20.765,10.498
		L58.346,9.422C60.95,9.85,63.594,8.939,65.383,7z M64.113,26.495L44.502,48.299c-3.232-1.684-7.2-0.919-9.576,1.846l-16.035-8.19
		c-0.577,7.268-0.693,16.843,1.5,27.225c1.961,9.114,5.768,17.767,12.229,23.996c6.575,6.229,16.035,10.729,31.609,10.729
		s24.919-4.5,31.494-10.729c6.576-6.229,10.383-14.882,12.344-23.996c2.308-10.728,2.076-20.419,1.5-27.802l-17.767,8.076
		c-2.259-2.532-5.89-3.323-8.997-1.962L64.113,26.495z"/>
</g>
</svg>
