<?xml version="1.0" encoding="utf-8"?>
<!-- Generator: Adobe Illustrator 16.0.3, SVG Export Plug-In . SVG Version: 6.00 Build 0)  -->
<!DOCTYPE svg PUBLIC "-//W3C//DTD SVG 1.1//EN" "http://www.w3.org/Graphics/SVG/1.1/DTD/svg11.dtd">
<svg version="1.1" id="Warstwa_1" xmlns="http://www.w3.org/2000/svg" xmlns:xlink="http://www.w3.org/1999/xlink" x="0px" y="0px"
	 width="128px" height="128px" viewBox="0 0 128 128" enable-background="new 0 0 128 128" xml:space="preserve">
<g>
	<path d="M113.107,81.77v21.46L93.769,83.641c6.488-8.608,10.356-19.214,10.356-30.818c0-28.323-22.833-51.281-51.157-51.281
		C24.646,1.542,1.688,24.5,1.688,52.823c0,28.324,22.958,51.157,51.281,51.157c11.853,0,22.708-3.994,31.442-10.855l19.464,19.838
		H81.915v13.351h31.192h13.351v-13.351V81.77H113.107z M82.789,76.03l-6.239,6.362c-6.488,5.116-14.723,8.236-23.582,8.236
		c-20.962,0-37.931-16.97-37.931-37.806c0-20.962,16.969-37.931,37.931-37.931c20.836,0,37.806,16.969,37.806,37.931
		C90.774,61.557,87.778,69.542,82.789,76.03z"/>
</g>
</svg>
