<?xml version="1.0" encoding="utf-8"?>
<!-- Generator: Adobe Illustrator 16.0.3, SVG Export Plug-In . SVG Version: 6.00 Build 0)  -->
<!DOCTYPE svg PUBLIC "-//W3C//DTD SVG 1.1//EN" "http://www.w3.org/Graphics/SVG/1.1/DTD/svg11.dtd">
<svg version="1.1" id="Warstwa_1" xmlns="http://www.w3.org/2000/svg" xmlns:xlink="http://www.w3.org/1999/xlink" x="0px" y="0px"
	 width="128px" height="128px" viewBox="0 0 128 128" enable-background="new 0 0 128 128" xml:space="preserve">
<g>
	<path d="M35.572,3.625c7.426,0.391,12.245,3.126,17.586,8.077c4.299,3.907,6.383,9.9,6.383,9.9
		c-0.431-1.151-1.714-1.734-2.865-1.302c-1.152,0.431-1.735,1.714-1.302,2.866c0,0-2.086-5.341-5.211-8.208
		c-5.081-4.559-8.338-6.513-14.59-6.904c-0.13,0-0.13,0-0.26,0c-6.123,0.391-8.208,2.475-9.51,5.602
		c-1.302,3.127-1.172,7.686-1.694,11.854c0,0.782,0,4.039,0,6.904c0,2.736,0.13,4.95,0.13,5.211l2.735,13.157l5.862,13.026
		c-0.041,0.353,0.004,0.711,0.13,1.043v9.77c-0.682,0.362-1.126,1.054-1.172,1.824c0,0-18.368,10.552-25.533,14.199
		c0,0.391,0,1.173,0,1.173c0.13,0.13,0.652,0.389,1.564,0.649c3.777,0.913,14.329,1.564,38.168,1.564
		c-1.223,0-2.215,0.99-2.215,2.215c0,1.223,0.992,2.215,2.215,2.215c-23.839,0-34.13-0.392-39.211-1.694
		c-1.302-0.392-2.345-0.78-3.256-1.302c-0.782-0.651-1.433-1.694-1.693-2.607c-0.391-1.822,0.13-2.864,0.13-3.647
		c0.772-0.347,1.278-1.106,1.302-1.953c5.472-2.734,23.579-13.026,25.142-13.938l0.13-8.208l-5.731-12.766
		c-0.032-0.134-0.075-0.265-0.131-0.391L19.81,38.276c0.012-0.13,0.012-0.261,0-0.391c0,0-0.129-2.475-0.129-5.341
		c0-2.866-0.13-5.862,0-7.425l0,0c0.391-3.909,0.26-8.728,2.084-13.157c1.693-4.429,6.122-7.946,13.548-8.337
		C35.399,3.63,35.485,3.63,35.572,3.625z M79.993,30.33c6.513,0.26,13.158,3.387,18.499,7.425c5.341,4.039,9.379,8.989,9.899,14.069
		c0.131,1.694,0,4.56-0.13,7.296c-0.13,2.735-0.261,5.21-0.261,5.21c-0.005,0.087-0.005,0.174,0,0.261l-2.345,13.808
		c-0.064,0.167-0.108,0.344-0.13,0.522l-5.731,13.026v7.816c1.693,0.911,19.93,11.462,25.271,14.068
		c-0.208,1.028,0.337,2.063,1.303,2.475c-0.261,1.173-0.651,2.734-1.823,3.908c-1.174,1.304-2.997,1.955-5.473,2.476
		c-5.079,0.911-14.198,1.041-32.176,1.041c-18.107,0-27.356-0.391-32.566-1.432c-2.736-0.521-4.43-1.173-5.732-2.215
		c-1.302-1.174-1.824-2.605-2.084-3.518c0.973-0.466,1.468-1.567,1.172-2.605c5.471-2.736,23.578-13.027,25.142-14.07l0.13-8.074
		l-5.731-12.767c-0.022-0.179-0.066-0.354-0.131-0.522l-2.215-13.677c-0.037-0.09-0.08-0.178-0.13-0.261c0,0-0.13-2.475-0.261-5.211
		c-0.13-2.866-0.261-5.601-0.13-7.295c0,0,0,0,0-0.131c0.391-3.777,0.13-8.727,1.955-13.157c1.693-4.429,5.861-8.207,13.417-8.467
		C79.819,30.335,79.906,30.335,79.993,30.33z M79.863,34.759c0,0,0,0-0.13,0c-6.123,0.261-8.076,2.345-9.25,5.602
		c-1.302,3.256-1.171,7.816-1.693,12.115c0,0.651,0,3.908,0.13,6.644c0.132,2.735,0.262,5.21,0.262,5.21l2.214,13.157l5.862,13.027
		c-0.021,0.311,0.024,0.621,0.131,0.913l-0.131,9.769c-0.671,0.419-1.069,1.165-1.042,1.955c0,0-16.935,9.64-24.491,13.547
		c0.391,0.392,1.303,0.782,3.387,1.174c4.56,0.91,13.808,1.431,31.786,1.431s27.097-0.261,31.395-1.04
		c2.085-0.391,2.866-0.782,3.126-1.043c0,0,0-0.261,0-0.391c-7.295-3.777-24.881-13.808-24.881-13.808
		c0-0.819-0.451-1.57-1.173-1.955v-9.639c0.107-0.292,0.151-0.603,0.132-0.913l5.861-13.155l2.215-13.159
		c0,0,0.13-2.475,0.261-5.211c0.13-2.735,0.13-5.992,0.13-6.644c-0.261-2.997-3.518-7.556-8.206-11.073
		C91.066,37.625,85.074,35.02,79.863,34.759z"/>
</g>
</svg>
