<?xml version="1.0" encoding="utf-8"?>
<!-- Generator: Adobe Illustrator 16.0.3, SVG Export Plug-In . SVG Version: 6.00 Build 0)  -->
<!DOCTYPE svg PUBLIC "-//W3C//DTD SVG 1.1//EN" "http://www.w3.org/Graphics/SVG/1.1/DTD/svg11.dtd">
<svg version="1.1" id="Warstwa_1" xmlns="http://www.w3.org/2000/svg" xmlns:xlink="http://www.w3.org/1999/xlink" x="0px" y="0px"
	 width="128px" height="128px" viewBox="0 0 128 128" enable-background="new 0 0 128 128" xml:space="preserve">
<path d="M126.521,54.063l-14.863-33.441c-0.866-1.951-2.823-3.313-5.095-3.313c-2.651,0-4.869,1.853-5.435,4.334L86.446,86.245
	L67.135,39.342c-0.838-2.027-2.833-3.455-5.159-3.455c-2.301,0-4.274,1.393-5.124,3.382L39.293,80.24l-9.485-18.973
	c-0.915-1.829-2.805-3.086-4.989-3.086c-1.72,0-3.262,0.782-4.282,2.009L1.958,82.482c-0.806,0.969-1.292,2.21-1.292,3.567
	c0,3.076,2.497,5.573,5.574,5.573c1.72,0,3.262-0.78,4.282-2.007l13.121-15.745L34.691,95.97c0.915,1.829,2.805,3.084,4.99,3.084
	c2.301,0,4.274-1.393,5.124-3.381L61.87,55.85l20.959,50.897c0.834,2.028,2.83,3.454,5.156,3.454c2.652,0,4.869-1.854,5.436-4.332
	l14.863-65.396l8.048,18.11c0.867,1.951,2.823,3.313,5.095,3.313c3.076,0,5.573-2.497,5.573-5.574
	C127,55.52,126.83,54.754,126.521,54.063z"/>
</svg>
