<?xml version="1.0" encoding="utf-8"?>
<!-- Generator: Adobe Illustrator 16.0.3, SVG Export Plug-In . SVG Version: 6.00 Build 0)  -->
<!DOCTYPE svg PUBLIC "-//W3C//DTD SVG 1.1//EN" "http://www.w3.org/Graphics/SVG/1.1/DTD/svg11.dtd">
<svg version="1.1" id="Warstwa_1" xmlns="http://www.w3.org/2000/svg" xmlns:xlink="http://www.w3.org/1999/xlink" x="0px" y="0px"
	 width="128px" height="128px" viewBox="0 0 128 128" enable-background="new 0 0 128 128" xml:space="preserve">
<g>
	<path d="M20.131,125.564c0.998,0.498,1.994,0.748,2.991,0.748c0.997,0,1.994-0.25,2.866-0.748L64,103.879l38.011,21.686
		c1.745,0.997,3.987,0.997,5.856,0c1.745-1.122,2.867-2.991,2.867-5.11V9.413c0-4.237-3.489-7.728-7.852-7.728H24.992
		c-4.238,0-7.727,3.491-7.727,7.728v111.041C17.265,122.573,18.387,124.442,20.131,125.564z M28.979,13.4h70.04v96.959
		l-32.153-18.32c-0.872-0.498-1.87-0.747-2.866-0.747c-0.998,0-1.994,0.249-2.867,0.747l-32.154,18.32V13.4z M87.305,48.421H40.57
		v11.715h46.735V48.421z M87.305,24.991H40.57v11.715h46.735V24.991z"/>
</g>
</svg>
