<?xml version="1.0" encoding="utf-8"?>
<!-- Generator: Adobe Illustrator 16.0.3, SVG Export Plug-In . SVG Version: 6.00 Build 0)  -->
<!DOCTYPE svg PUBLIC "-//W3C//DTD SVG 1.1//EN" "http://www.w3.org/Graphics/SVG/1.1/DTD/svg11.dtd">
<svg version="1.1" id="Warstwa_1" xmlns="http://www.w3.org/2000/svg" xmlns:xlink="http://www.w3.org/1999/xlink" x="0px" y="0px"
	 width="128px" height="128px" viewBox="0 0 128 128" enable-background="new 0 0 128 128" xml:space="preserve">
<g>
	<path fill="#1D1D1B" d="M8.509,65.546h96.083L78.419,91.804l0.041,0.036c-1.048,1.192-1.688,2.751-1.688,4.464
		c0,3.738,3.029,6.771,6.768,6.771c1.713,0,3.271-0.641,4.464-1.689l0.034,0.036l33.783-33.868c0,0,4.181-2.832,4.181-7.944
		c0-4.171-3.931-7.61-3.931-7.61L87.951,17.795l-0.066,0.067c-1.176-0.987-2.691-1.583-4.346-1.583c-3.739,0-6.77,3.031-6.77,6.77
		c0,1.656,0.596,3.171,1.583,4.348l-0.101,0.102l26.007,26.172H8.509c-3.262,0-5.938,2.677-5.938,5.938
		C2.572,62.87,5.25,65.546,8.509,65.546z"/>
</g>
</svg>
