<?xml version="1.0" encoding="utf-8"?>
<!-- Generator: Adobe Illustrator 16.0.3, SVG Export Plug-In . SVG Version: 6.00 Build 0)  -->
<!DOCTYPE svg PUBLIC "-//W3C//DTD SVG 1.1//EN" "http://www.w3.org/Graphics/SVG/1.1/DTD/svg11.dtd">
<svg version="1.1" id="Warstwa_1" xmlns="http://www.w3.org/2000/svg" xmlns:xlink="http://www.w3.org/1999/xlink" x="0px" y="0px"
	 width="128px" height="128px" viewBox="0 0 128 128" enable-background="new 0 0 128 128" xml:space="preserve">
<g>
	<path d="M63.825,1.847c6.807,0,12.5,4.455,14.728,10.52c13.118,5.693,22.399,18.563,22.399,33.662
		c0,8.787,1.238,16.708,3.095,23.143c1.856,6.312,4.579,10.891,6.806,12.747c4.951,4.331,7.797,10.643,7.797,17.202
		c0,8.663-7.177,15.841-15.964,15.841H78.8c-2.228,6.188-8.044,10.644-14.975,10.644c-6.807,0-12.747-4.455-14.851-10.644H24.965
		C16.178,114.962,9,107.784,9,99.121c0-6.56,2.847-12.871,7.92-17.202c2.104-1.856,4.827-6.436,6.683-12.747
		c1.857-6.436,3.094-14.356,3.094-23.143c0-15.099,9.282-27.969,22.4-33.662C51.449,6.302,57.018,1.847,63.825,1.847z M63.825,12.49
		c-2.723,0-4.703,1.857-5.198,4.332l-0.495,3.094l-2.97,1.114c-10.396,3.589-17.821,13.366-17.821,24.999
		c0,9.653-1.362,18.688-3.589,26.236c-2.228,7.55-5.198,13.738-9.9,17.698c-2.599,2.352-4.208,5.568-4.208,9.158
		c0,2.97,2.352,5.322,5.322,5.322h28.217h5.322v5.197c0,3.094,2.351,5.321,5.321,5.321c2.971,0,5.322-2.228,5.322-5.321v-5.197
		h5.321h28.218c3.093,0,5.321-2.353,5.321-5.322c0-3.59-1.485-6.807-4.208-9.158c-4.702-3.96-7.673-10.148-9.901-17.698
		c-2.227-7.548-3.589-16.583-3.589-26.236c0-11.633-7.426-21.41-17.697-24.999l-2.97-1.114l-0.619-3.094
		C68.651,14.347,66.548,12.49,63.825,12.49z"/>
</g>
</svg>
