<?xml version="1.0" encoding="utf-8"?>
<!-- Generator: Adobe Illustrator 16.0.3, SVG Export Plug-In . SVG Version: 6.00 Build 0)  -->
<!DOCTYPE svg PUBLIC "-//W3C//DTD SVG 1.1//EN" "http://www.w3.org/Graphics/SVG/1.1/DTD/svg11.dtd">
<svg version="1.1" id="Warstwa_1" xmlns="http://www.w3.org/2000/svg" xmlns:xlink="http://www.w3.org/1999/xlink" x="0px" y="0px"
	 width="128px" height="128px" viewBox="0 0 128 128" enable-background="new 0 0 128 128" xml:space="preserve">
<g>
	<path d="M10.889,14h23.959c12.648,0,23.239,3.702,29.203,9.46c5.862-5.758,16.453-9.46,29.1-9.46h23.959
		c3.805,0,6.89,3.085,6.89,6.89v78.766c0,3.806-3.085,6.89-6.89,6.89H93.151c-9.152,0-19.022,3.907-22.622,7.609
		c-1.646,1.748-3.907,2.673-6.169,2.673h-0.72c-2.262,0-4.525-0.925-6.17-2.673c-3.497-3.702-13.471-7.609-22.622-7.609H10.889
		c-3.804,0-6.889-3.084-6.889-6.89V20.89C4,17.086,7.084,14,10.889,14z M93.151,96.263h20.565V24.284H93.151
		c-14.602,0-23.959,6.067-23.959,10.283v67.352C75.259,98.319,83.589,96.263,93.151,96.263z M14.282,96.263h20.566
		c9.563,0,17.892,2.057,24.062,5.655V34.566c0-4.215-9.357-10.283-24.062-10.283H14.282V96.263z"/>
</g>
</svg>
