<?xml version="1.0" encoding="utf-8"?>
<!-- Generator: Adobe Illustrator 16.0.3, SVG Export Plug-In . SVG Version: 6.00 Build 0)  -->
<!DOCTYPE svg PUBLIC "-//W3C//DTD SVG 1.1//EN" "http://www.w3.org/Graphics/SVG/1.1/DTD/svg11.dtd">
<svg version="1.1" id="Warstwa_1" xmlns="http://www.w3.org/2000/svg" xmlns:xlink="http://www.w3.org/1999/xlink" x="0px" y="0px"
	 width="128px" height="128px" viewBox="0 0 128 128" enable-background="new 0 0 128 128" xml:space="preserve">
<path fill="#FFFFFF" d="M79.482,2c0.625,0.63,1.453,1.022,2.338,1.107L95.723,17.01h8.489c13.165,0,23.869,10.827,23.869,23.869
	v60.289c0,13.165-10.704,23.868-23.869,23.868H23.87C10.704,125.037,0,114.334,0,101.169V40.88c0-13.042,10.704-23.869,23.87-23.869
	h8.489L46.262,3.107C47.275,3.113,48.25,2.714,48.969,2h30.144C79.236,2.006,79.359,2.006,79.482,2z M77.514,9.505H50.568
	L36.542,23.532c-0.971,0.027-1.896,0.423-2.584,1.107H23.87c-9.105,0-16.365,7.259-16.365,16.241v60.289
	c0,9.104,7.26,16.363,16.365,16.363h80.343c9.104,0,16.363-7.259,16.363-16.363l0.001-60.289c0-8.982-7.261-16.241-16.364-16.241
	H94.124c-0.688-0.685-1.612-1.081-2.584-1.107L77.514,9.505z M64.103,49.739c10.334,0,18.825,8.49,18.825,18.825
	c0,10.334-8.49,18.824-18.825,18.824c-10.458,0-18.948-8.49-18.948-18.824C45.155,58.229,53.645,49.739,64.103,49.739z
	 M64.103,57.244c-6.398,0-11.32,5.045-11.32,11.32c0,6.273,4.922,11.318,11.32,11.318c6.274,0,11.195-5.045,11.195-11.318
	C75.298,62.289,70.377,57.244,64.103,57.244z"/>
</svg>
