<?xml version="1.0" encoding="utf-8"?>
<!-- Generator: Adobe Illustrator 16.0.3, SVG Export Plug-In . SVG Version: 6.00 Build 0)  -->
<!DOCTYPE svg PUBLIC "-//W3C//DTD SVG 1.1//EN" "http://www.w3.org/Graphics/SVG/1.1/DTD/svg11.dtd">
<svg version="1.1" id="Warstwa_1" xmlns="http://www.w3.org/2000/svg" xmlns:xlink="http://www.w3.org/1999/xlink" x="0px" y="0px"
	 width="128px" height="128px" viewBox="0 0 128 128" enable-background="new 0 0 128 128" xml:space="preserve">
<g>
	<path d="M64.042,1.835c-34.257,0-62.061,27.804-62.061,62.061c0,34.258,27.804,62.061,62.061,62.061
		c34.258,0,62.061-27.803,62.061-62.061C126.104,29.639,98.301,1.835,64.042,1.835z M64.042,118.262
		c-30.038,0-54.241-24.328-54.241-54.366S34.005,9.53,64.042,9.53s54.367,24.328,54.367,54.366S94.08,118.262,64.042,118.262z
		 M64.042,27.652c-19.983,0-36.244,16.26-36.244,36.244c0,19.984,16.26,36.244,36.244,36.244c19.985,0,36.244-16.26,36.244-36.244
		C100.286,43.913,84.027,27.652,64.042,27.652z M64.042,92.32c-15.764,0-28.424-12.66-28.424-28.424
		c0-15.763,12.66-28.424,28.424-28.424c15.765,0,28.425,12.661,28.425,28.424C92.468,79.66,79.808,92.32,64.042,92.32z
		 M64.042,53.594c-5.709,0-10.302,4.593-10.302,10.302s4.593,10.302,10.302,10.302s10.302-4.593,10.302-10.302
		S69.752,53.594,64.042,53.594z M64.042,66.503c-1.366,0-2.606-1.118-2.606-2.607c0-1.366,1.24-2.607,2.606-2.607
		c1.489,0,2.608,1.241,2.608,2.607C66.65,65.385,65.531,66.503,64.042,66.503z"/>
</g>
</svg>
