<?xml version="1.0" encoding="utf-8"?>
<!-- Generator: Adobe Illustrator 16.0.3, SVG Export Plug-In . SVG Version: 6.00 Build 0)  -->
<!DOCTYPE svg PUBLIC "-//W3C//DTD SVG 1.1//EN" "http://www.w3.org/Graphics/SVG/1.1/DTD/svg11.dtd">
<svg version="1.1" id="Warstwa_1" xmlns="http://www.w3.org/2000/svg" xmlns:xlink="http://www.w3.org/1999/xlink" x="0px" y="0px"
	 width="128px" height="128px" viewBox="0 0 128 128" enable-background="new 0 0 128 128" xml:space="preserve">
<g>
	<path d="M111.695,51c-7.933,0-14.378,6.316-14.378,13.97c0,7.773,6.445,14.091,14.378,14.091c7.81,0,14.254-6.317,14.254-14.091
		C125.949,57.316,119.505,51,111.695,51z M63.975,51c-7.933,0-14.254,6.316-14.254,13.97c0,7.773,6.321,14.091,14.254,14.091
		c7.932,0,14.254-6.317,14.254-14.091C78.229,57.316,71.907,51,63.975,51z M16.254,51C8.445,51,2,57.316,2,64.97
		c0,7.773,6.445,14.091,14.254,14.091c7.933,0,14.378-6.317,14.378-14.091C30.632,57.316,24.187,51,16.254,51z"/>
</g>
</svg>
