<?xml version="1.0" encoding="utf-8"?>
<!-- Generator: Adobe Illustrator 16.0.3, SVG Export Plug-In . SVG Version: 6.00 Build 0)  -->
<!DOCTYPE svg PUBLIC "-//W3C//DTD SVG 1.1//EN" "http://www.w3.org/Graphics/SVG/1.1/DTD/svg11.dtd">
<svg version="1.1" id="Warstwa_1" xmlns="http://www.w3.org/2000/svg" xmlns:xlink="http://www.w3.org/1999/xlink" x="0px" y="0px"
	 width="128px" height="128px" viewBox="0 0 128 128" enable-background="new 0 0 128 128" xml:space="preserve">
<g>
	<path d="M64.015,126.037c34.236,0,62.023-27.786,62.023-62.023c0-34.236-27.787-62.022-62.023-62.022
		c-34.237,0-62.023,27.787-62.023,62.022C1.991,98.251,29.778,126.037,64.015,126.037z M64.015,118.347
		c-27.538,0-50.363-20.591-53.712-47.261c0.248-0.497,0.62-0.993,0.868-1.488c3.845-6.823,6.574-10.917,11.536-10.917
		c5.086,0,7.815,4.094,11.66,10.917c3.722,6.449,8.312,12.527,16.995,12.527c8.684,0,13.15-5.954,16.87-12.527
		c3.846-6.7,6.575-10.793,11.537-10.793c5.086,0,7.814,4.094,11.66,10.793c3.721,6.573,7.69,12.527,16.374,12.527
		c3.35,0,6.079-1.116,8.311-2.854C109.539,101.725,88.699,118.347,64.015,118.347z M64.015,9.682
		c30.019,0,54.209,24.313,54.209,54.332c0,0.622,0,1.365,0,1.986c-3.226,5.333-5.83,8.434-10.173,8.434
		c-5.086,0-7.69-4.094-11.536-10.915c-3.722-6.451-8.187-12.405-16.994-12.405c-8.683,0-12.901,5.83-16.623,12.405
		c-3.845,6.698-6.574,10.792-11.661,10.792c-4.961,0-7.69-4.094-11.536-10.792c-3.722-6.575-7.815-12.405-16.499-12.405
		c-6.202,0-10.172,3.721-13.273,8.188C12.411,31.514,35.608,9.682,64.015,9.682z"/>
</g>
</svg>
