<?xml version="1.0" encoding="utf-8"?>
<!-- Generator: Adobe Illustrator 16.0.3, SVG Export Plug-In . SVG Version: 6.00 Build 0)  -->
<!DOCTYPE svg PUBLIC "-//W3C//DTD SVG 1.1//EN" "http://www.w3.org/Graphics/SVG/1.1/DTD/svg11.dtd">
<svg version="1.1" id="Warstwa_1" xmlns="http://www.w3.org/2000/svg" xmlns:xlink="http://www.w3.org/1999/xlink" x="0px" y="0px"
	 width="128px" height="128px" viewBox="0 0 128 128" enable-background="new 0 0 128 128" xml:space="preserve">
<g>
	<path d="M9.416,75.354v41.374c0,4.089,3.367,7.457,7.577,7.457h37.524h15.034h41.373c4.089,0,7.457-3.368,7.457-7.457V75.354
		c4.21,0,7.577-3.367,7.577-7.576V45.287c0-4.209-3.367-7.577-7.577-7.577h-7.457H99.86c5.052-11.667,3.247-33.436,3.247-33.436
		s-29.346-2.646-38.246,6.134c-0.361,0.36-0.602,0.722-0.963,1.203c-0.36-0.481-0.601-0.842-0.962-1.203
		c-8.78-8.78-38.126-6.134-38.126-6.134s-1.804,21.77,3.247,33.436H16.993H9.416c-4.089,0-7.457,3.368-7.457,7.577v22.491
		C1.959,71.987,5.327,75.354,9.416,75.354z M107.196,112.88H69.552V75.354h37.645V112.88z M114.653,49.016V64.05H69.552V49.016
		h11.305l0,0H114.653z M72.919,18.467c4.33-4.33,19.123-3.127,19.123-3.127s1.203,14.673-3.247,19.123
		c-4.33,4.33-19.243,3.248-19.243,3.248S68.47,22.917,72.919,18.467z M58.247,112.88H20.721V75.354h37.525V112.88z M35.755,15.34
		c0,0,14.793-1.203,19.243,3.127c4.45,4.45,3.248,19.244,3.248,19.244s-14.794,1.082-19.244-3.248
		C34.673,30.013,35.755,15.34,35.755,15.34z M13.145,49.016h33.917l0,0h11.186V64.05H13.145V49.016z"/>
</g>
</svg>
