<?xml version="1.0" encoding="utf-8"?>
<!-- Generator: Adobe Illustrator 16.0.3, SVG Export Plug-In . SVG Version: 6.00 Build 0)  -->
<!DOCTYPE svg PUBLIC "-//W3C//DTD SVG 1.1//EN" "http://www.w3.org/Graphics/SVG/1.1/DTD/svg11.dtd">
<svg version="1.1" id="Warstwa_1" xmlns="http://www.w3.org/2000/svg" xmlns:xlink="http://www.w3.org/1999/xlink" x="0px" y="0px"
	 width="128px" height="128px" viewBox="0 0 128 128" enable-background="new 0 0 128 128" xml:space="preserve">
<g>
	<path d="M92.62,12c9.506,0,17.888,4.293,23.202,10.732c3.885,4.702,5.929,6.733,7.054,12.866l1.124,4v6.542v0.205
		c0,0.92,0,1.022,0,0.204c0-1.124,0-0.919,0,0.205c0,1.431-0.104,1.738-0.104,1.329c0,0.102,0,0.102,0,0.205
		c-0.918,21.565-15.944,37.922-29.744,48.653c-13.9,10.938-27.495,16.764-27.495,16.764L64,114.727l-2.658-1.021
		c0,0-13.595-5.826-27.496-16.764C20.047,86.105,5.021,69.854,4.102,48.287C4.205,48.798,4,48.287,4,46.753c0-1.124,0-1.329,0-0.205
		c0,0.716,0,0.716,0-0.204V46.14v-6.542l1.124-4c1.125-6.133,3.271-8.164,7.257-12.866C17.696,16.294,25.874,12,35.38,12
		c14.821,0,22.794,5.724,28.518,11.346c1.942-2.044,3.271-4.088,6.235-5.928C75.551,14.045,82.809,12,92.62,12z"/>
</g>
</svg>
