<?xml version="1.0" encoding="utf-8"?>
<!-- Generator: Adobe Illustrator 16.0.3, SVG Export Plug-In . SVG Version: 6.00 Build 0)  -->
<!DOCTYPE svg PUBLIC "-//W3C//DTD SVG 1.1//EN" "http://www.w3.org/Graphics/SVG/1.1/DTD/svg11.dtd">
<svg version="1.1" id="Warstwa_1" xmlns="http://www.w3.org/2000/svg" xmlns:xlink="http://www.w3.org/1999/xlink" x="0px" y="0px"
	 width="128px" height="128px" viewBox="0 0 128 128" enable-background="new 0 0 128 128" xml:space="preserve">
<g>
	<path d="M64.453,2.071c-33.182,0-60.147,26.968-60.147,60.15c0,19.759,9.693,38.274,25.972,49.459
		c0.994,0.746,2.114,0.995,3.108,1.118c1.988,0,3.852-0.869,4.97-2.484c1.865-2.733,1.244-6.338-1.368-8.204
		c-13.171-9.071-21.002-23.985-21.002-39.889c0-26.718,21.748-48.467,48.467-48.467c26.844,0,48.594,21.749,48.594,48.467
		c0,15.904-7.831,30.818-21.003,39.889c-2.61,1.866-3.233,5.471-1.493,8.204c1.243,1.615,2.983,2.484,4.97,2.484
		c1.119,0,2.238-0.372,3.233-1.118c16.28-11.186,25.973-29.7,25.973-49.459C124.727,29.039,97.759,2.071,64.453,2.071z
		 M64.453,79.743c-3.105,0-5.716,2.609-5.716,5.839v34.923c0,3.23,2.611,5.842,5.716,5.842c3.23,0,5.842-2.611,5.842-5.842V85.582
		C70.295,82.353,67.684,79.743,64.453,79.743z"/>
</g>
</svg>
