<?xml version="1.0" encoding="utf-8"?>
<!-- Generator: Adobe Illustrator 16.0.3, SVG Export Plug-In . SVG Version: 6.00 Build 0)  -->
<!DOCTYPE svg PUBLIC "-//W3C//DTD SVG 1.1//EN" "http://www.w3.org/Graphics/SVG/1.1/DTD/svg11.dtd">
<svg version="1.1" id="Warstwa_1" xmlns="http://www.w3.org/2000/svg" xmlns:xlink="http://www.w3.org/1999/xlink" x="0px" y="0px"
	 width="128px" height="128px" viewBox="0 0 128 128" enable-background="new 0 0 128 128" xml:space="preserve">
<g>
	<path d="M14.053,126.739c-6.886,0-12.521-5.634-12.521-12.521v-35.81c0-6.762,5.635-12.52,12.521-12.52h35.81
		c6.761,0,12.521,5.758,12.521,12.52v35.81c0,6.887-5.759,12.521-12.521,12.521H14.053z M78.409,126.739
		c-6.762,0-12.52-5.634-12.52-12.521v-35.81c0-6.762,5.758-12.52,12.52-12.52h35.81c6.887,0,12.521,5.758,12.521,12.52v35.81
		c0,6.887-5.634,12.521-12.521,12.521H78.409z M14.053,115.972h35.81c1.002,0,1.753-0.751,1.753-1.753v-35.81
		c0-1.002-0.751-1.753-1.753-1.753h-35.81c-1.002,0-1.753,0.751-1.753,1.753v35.81C12.3,115.221,13.051,115.972,14.053,115.972z
		 M78.409,115.972h35.81c1.002,0,1.753-0.751,1.753-1.753v-35.81c0-1.002-0.751-1.753-1.753-1.753h-35.81
		c-1.002,0-1.753,0.751-1.753,1.753v35.81C76.656,115.221,77.407,115.972,78.409,115.972z M14.053,62.383
		c-6.886,0-12.521-5.759-12.521-12.521v-35.81c0-6.886,5.635-12.521,12.521-12.521h35.81c6.886,0,12.521,5.635,12.521,12.521v35.81
		c0,6.761-5.759,12.521-12.521,12.521H14.053z M78.409,62.383c-6.762,0-12.52-5.759-12.52-12.521v-35.81
		c0-6.886,5.758-12.521,12.52-12.521h35.81c6.887,0,12.521,5.635,12.521,12.521v35.81c0,6.761-5.634,12.521-12.521,12.521H78.409z
		 M14.053,51.615h35.81c1.002,0,1.753-0.751,1.753-1.753v-35.81c0-1.002-0.751-1.753-1.753-1.753h-35.81
		c-1.002,0-1.753,0.751-1.753,1.753v35.81C12.3,50.864,13.051,51.615,14.053,51.615z M78.409,51.615h35.81
		c1.002,0,1.753-0.751,1.753-1.753v-35.81c0-1.002-0.751-1.753-1.753-1.753h-35.81c-1.002,0-1.753,0.751-1.753,1.753v35.81
		C76.656,50.864,77.407,51.615,78.409,51.615z"/>
</g>
</svg>
