<?xml version="1.0" encoding="utf-8"?>
<!-- Generator: Adobe Illustrator 16.0.3, SVG Export Plug-In . SVG Version: 6.00 Build 0)  -->
<!DOCTYPE svg PUBLIC "-//W3C//DTD SVG 1.1//EN" "http://www.w3.org/Graphics/SVG/1.1/DTD/svg11.dtd">
<svg version="1.1" id="Warstwa_1" xmlns="http://www.w3.org/2000/svg" xmlns:xlink="http://www.w3.org/1999/xlink" x="0px" y="0px"
	 width="128px" height="128px" viewBox="0 0 128 128" enable-background="new 0 0 128 128" xml:space="preserve">
<g>
	<path d="M118.465,27.708h-3.579v82.904l0,0l0,0h-79.44l0,0H24.708v3.695c0,3.925,3.233,7.158,7.158,7.158h86.599
		c4.041,0,7.273-3.233,7.273-7.158V34.866C125.738,30.94,122.506,27.708,118.465,27.708z M104.032,92.599v-79.44
		c0-3.926-3.233-7.159-7.159-7.159H10.274C6.233,6,3,9.233,3,13.159v79.44c0,4.041,3.233,7.274,7.274,7.274h86.599
		C100.799,99.873,104.032,96.64,104.032,92.599z M93.177,89.02H13.854V48.606c1.155-0.578,2.31-1.039,3.464-1.616
		c5.542-2.656,6.697-4.85,16.973-4.85c10.161,0,11.315,2.194,16.858,4.85c5.888,2.771,9.006,5.888,21.592,5.888
		c11.893,0,14.895-2.771,20.436-5.427V89.02z M93.177,35.559c-1.154,0.577-2.309,1.155-3.463,1.617
		c-5.543,2.656-6.697,4.964-16.973,4.964c-10.162,0-11.432-2.309-16.974-4.964c-5.773-2.772-8.891-5.889-21.477-5.889
		c-11.893,0-14.895,2.771-20.438,5.427v-19.86h79.323V35.559z M35.446,60.153c-3.926,0-7.159,3.232-7.159,7.159
		c0,4.041,3.233,7.273,7.159,7.273c4.041,0,7.274-3.232,7.274-7.273C42.72,63.386,39.487,60.153,35.446,60.153z"/>
</g>
</svg>
