<?xml version="1.0" encoding="utf-8"?>
<!-- Generator: Adobe Illustrator 16.0.3, SVG Export Plug-In . SVG Version: 6.00 Build 0)  -->
<!DOCTYPE svg PUBLIC "-//W3C//DTD SVG 1.1//EN" "http://www.w3.org/Graphics/SVG/1.1/DTD/svg11.dtd">
<svg version="1.1" id="Warstwa_1" xmlns="http://www.w3.org/2000/svg" xmlns:xlink="http://www.w3.org/1999/xlink" x="0px" y="0px"
	 width="128px" height="128px" viewBox="0 0 128 128" enable-background="new 0 0 128 128" xml:space="preserve">
<g>
	<path d="M11.091,15.608c-5.806,5.93-9.144,14.083-9.144,22.607c0,3.583,0.618,7.042,1.729,10.377
		c12.849,36.938,42.25,63.621,78.816,75.729c12.478,4.076,26.189-0.248,34.097-10.873l4.323-5.805
		c2.965-3.953,4.571-8.771,4.571-13.959c0-8.647-4.694-16.432-12.229-20.385l-18.53-9.636c-2.349-1.358-5.064-1.976-7.783-1.976
		c-4.324,0-8.524,1.605-11.736,4.57l-2.101,2.101c-0.618,0.617-1.729,0.742-2.47,0.248c-5.437-2.842-9.76-4.695-12.477-10.13
		c-0.125-0.248-0.248-0.618-0.248-0.989c0-0.741,0.248-1.359,0.494-1.606l1.978-2.223c2.965-3.212,4.57-7.536,4.57-11.86
		c0-2.841-0.618-5.56-1.853-8.03L53.588,14.99C49.633,7.208,41.975,2.514,33.451,2.514c-5.931,0-11.612,2.347-15.813,6.547
		L11.091,15.608z M39.875,22.155l9.388,18.778c0.125,0.247,0.248,0.494,0.248,0.864c0,0.494-0.248,0.989-0.494,1.236l-1.978,2.224
		c-2.965,3.335-4.569,7.783-4.569,12.229c0,2.841,0.616,5.683,1.853,8.155c4.323,8.398,10.994,12.601,19.271,16.924
		c6.548,3.459,14.578,2.347,20.014-2.719l2.1-1.976c0.247-0.248,0.617-0.494,1.235-0.494c0.247,0,0.494,0.122,0.741,0.246
		l18.531,9.637c2.347,1.235,3.828,3.705,3.828,6.425c0,1.604-0.494,3.211-1.481,4.445l-4.201,5.684
		c-4.076,5.313-10.871,7.535-17.171,5.436c-31.996-10.5-57.691-33.479-68.933-65.845c-0.618-1.729-0.864-3.458-0.864-5.188
		c0-4.2,1.605-8.4,4.57-11.365l6.548-6.548c1.358-1.358,3.088-2.1,4.94-2.1C36.168,18.202,38.64,19.685,39.875,22.155z"/>
</g>
</svg>
