<?xml version="1.0" encoding="utf-8"?>
<!-- Generator: Adobe Illustrator 16.0.3, SVG Export Plug-In . SVG Version: 6.00 Build 0)  -->
<!DOCTYPE svg PUBLIC "-//W3C//DTD SVG 1.1//EN" "http://www.w3.org/Graphics/SVG/1.1/DTD/svg11.dtd">
<svg version="1.1" id="Warstwa_1" xmlns="http://www.w3.org/2000/svg" xmlns:xlink="http://www.w3.org/1999/xlink" x="0px" y="0px"
	 width="128px" height="128px" viewBox="0 0 128 128" enable-background="new 0 0 128 128" xml:space="preserve">
<g>
	<path d="M117.067,55.136H72.725V10.794C72.725,5.964,68.761,2,63.931,2c-4.831,0-8.794,3.964-8.794,8.794v44.342H10.794
		C5.964,55.136,2,59.1,2,63.931c0,4.83,3.964,8.794,8.794,8.794h44.342v44.343c0,4.83,3.964,8.794,8.794,8.794
		c4.83,0,8.794-3.964,8.794-8.794V72.725h44.343c4.83,0,8.794-3.964,8.794-8.794C125.861,59.1,121.897,55.136,117.067,55.136z"/>
</g>
</svg>
