<?xml version="1.0" encoding="utf-8"?>
<!-- Generator: Adobe Illustrator 16.0.3, SVG Export Plug-In . SVG Version: 6.00 Build 0)  -->
<!DOCTYPE svg PUBLIC "-//W3C//DTD SVG 1.1//EN" "http://www.w3.org/Graphics/SVG/1.1/DTD/svg11.dtd">
<svg version="1.1" id="Warstwa_1" xmlns="http://www.w3.org/2000/svg" xmlns:xlink="http://www.w3.org/1999/xlink" x="0px" y="0px"
	 width="128px" height="128px" viewBox="0 0 128 128" enable-background="new 0 0 128 128" xml:space="preserve">
<g>
	<path d="M65.969,3.097c28.031,0,50.676,21.054,50.676,50.431c0,16.035-8.324,30.968-17.748,43.208
		c-9.304,12.241-20.074,21.911-25.829,26.93l-0.734,0.489l-0.734,0.367c-1.591,0.611-3.304,0.979-5.018,0.979
		c-0.612,0-0.49-0.123-0.612-0.123c-0.245,0-0.122,0.123-0.734,0.123c-1.713,0-3.428-0.368-5.019-0.979l-0.857-0.367l-0.734-0.612
		C44.67,110.445,15.171,85.23,15.171,53.528C15.171,24.15,37.815,3.097,65.969,3.097z M65.969,13.624
		c-23.135,0-40.271,15.667-40.271,39.904c0,24.358,24.726,47.86,39.17,61.325c0.123,0.122,0.245,0.122,0.367,0.122
		c-0.49,0-0.367,0.122,0.244,0l0.49-0.122l0.366,0.122c0.735,0.122,0.735,0,0.246,0c0.122,0,0.244,0,0.489-0.122
		c5.63-4.896,15.178-13.71,23.502-24.604c8.69-11.261,15.545-24.481,15.545-36.721C106.117,29.291,88.981,13.624,65.969,13.624z
		 M65.969,45.082c4.773,0,8.69,3.917,8.69,8.691s-3.917,8.813-8.69,8.813c-4.774,0-8.813-4.039-8.813-8.813
		S61.195,45.082,65.969,45.082z M65.969,52.059c-0.979,0-1.836,0.857-1.836,1.714c0,0.979,0.858,1.836,1.836,1.836
		c0.856,0,1.713-0.857,1.713-1.836C67.682,52.916,66.825,52.059,65.969,52.059z"/>
</g>
</svg>
