<?xml version="1.0" encoding="utf-8"?>
<!-- Generator: Adobe Illustrator 16.0.3, SVG Export Plug-In . SVG Version: 6.00 Build 0)  -->
<!DOCTYPE svg PUBLIC "-//W3C//DTD SVG 1.1//EN" "http://www.w3.org/Graphics/SVG/1.1/DTD/svg11.dtd">
<svg version="1.1" id="Warstwa_1" xmlns="http://www.w3.org/2000/svg" xmlns:xlink="http://www.w3.org/1999/xlink" x="0px" y="0px"
	 width="128px" height="128px" viewBox="0 0 128 128" enable-background="new 0 0 128 128" xml:space="preserve">
<g>
	<path d="M108.923,19.262l-83.7,44.831h31.169c4.223,0,7.7,3.477,7.7,7.7v31.17L108.923,19.262 M126.185,9.7
		c0,1.366-0.373,2.607-0.87,3.726L67.073,122.087c-1.366,2.483-3.85,4.098-6.831,4.098c-4.347,0-7.824-3.478-7.824-7.824V75.766H9.7
		c-4.223,0-7.7-3.478-7.7-7.823c0-2.981,1.614-5.464,4.099-6.831l108.66-58.243C115.877,2.373,117.119,2,118.485,2
		C122.707,2,126.185,5.477,126.185,9.7L126.185,9.7z"/>
</g>
</svg>
