<?xml version="1.0" encoding="utf-8"?>
<!-- Generator: Adobe Illustrator 16.0.3, SVG Export Plug-In . SVG Version: 6.00 Build 0)  -->
<!DOCTYPE svg PUBLIC "-//W3C//DTD SVG 1.1//EN" "http://www.w3.org/Graphics/SVG/1.1/DTD/svg11.dtd">
<svg version="1.1" id="Warstwa_1" xmlns="http://www.w3.org/2000/svg" xmlns:xlink="http://www.w3.org/1999/xlink" x="0px" y="0px"
	 width="128px" height="128px" viewBox="0 0 128 128" enable-background="new 0 0 128 128" xml:space="preserve">
<g>
	<path d="M105.597,2.027c4.899,0,8.92,4.021,8.92,8.921v108.433c0,2.514-1.382,4.774-3.518,6.03
		c-2.138,1.258-4.775,1.384-6.911,0.128l-36.563-20.984L30.961,125.54c-1.005,0.626-2.262,0.88-3.393,0.88
		c-1.256,0-2.386-0.379-3.518-1.008c-2.136-1.256-3.519-3.517-3.519-6.03V10.949c0-4.9,4.021-8.921,8.921-8.921H105.597z
		 M105.597,4.54H29.454c-3.518,0-6.283,2.891-6.283,6.409v108.433c0,1.634,0.754,3.143,2.136,3.896
		c0.753,0.377,1.507,0.628,2.261,0.628s1.508-0.251,2.263-0.628l37.065-21.233l0.628-0.379l0.628,0.379l37.191,21.233
		c1.383,0.754,3.016,0.754,4.398,0c1.383-0.753,2.262-2.262,2.262-3.896V10.949C112.004,7.431,109.114,4.54,105.597,4.54z
		 M87.629,26.026c1.76,0,3.14,1.508,3.14,3.267c0,1.633-1.38,3.141-3.14,3.141H45.788c-1.759,0-3.267-1.508-3.267-3.141
		c0-1.759,1.507-3.267,3.267-3.267H87.629z M87.629,28.54H45.788c-0.377,0-0.628,0.376-0.628,0.754c0,0.251,0.25,0.628,0.628,0.628
		h41.841c0.377,0,0.627-0.377,0.627-0.628C88.256,28.916,88.006,28.54,87.629,28.54z M87.629,37.46c1.76,0,3.14,1.508,3.14,3.142
		c0,1.759-1.38,3.266-3.14,3.266H45.788c-1.759,0-3.267-1.507-3.267-3.266c0-1.634,1.507-3.142,3.267-3.142H87.629z M87.629,39.973
		H45.788c-0.377,0-0.628,0.377-0.628,0.629c0,0.376,0.25,0.753,0.628,0.753h41.841c0.377,0,0.627-0.377,0.627-0.753
		C88.256,40.35,88.006,39.973,87.629,39.973z"/>
</g>
</svg>
