<?xml version="1.0" encoding="utf-8"?>
<!-- Generator: Adobe Illustrator 16.0.3, SVG Export Plug-In . SVG Version: 6.00 Build 0)  -->
<!DOCTYPE svg PUBLIC "-//W3C//DTD SVG 1.1//EN" "http://www.w3.org/Graphics/SVG/1.1/DTD/svg11.dtd">
<svg version="1.1" id="Warstwa_1" xmlns="http://www.w3.org/2000/svg" xmlns:xlink="http://www.w3.org/1999/xlink" x="0px" y="0px"
	 width="128px" height="128px" viewBox="0 0 128 128" enable-background="new 0 0 128 128" xml:space="preserve">
<g>
	<path d="M118.715,126.188c0.623,0.249,1.246,0.374,1.993,0.374c3.238,0,5.854-2.616,5.854-5.854c0-0.747-0.125-1.37-0.374-1.993
		l0.374-0.498L98.909,90.688c7.599-9.342,12.083-21.3,12.083-34.13C110.992,26.415,86.579,2,56.434,2
		C26.415,2,2.001,26.415,2.001,56.559c0,30.02,24.414,54.434,54.433,54.434c12.956,0,24.914-4.484,34.254-12.083l27.528,27.653
		L118.715,126.188z M56.434,99.283c-23.542,0-42.724-19.183-42.724-42.725c0-23.667,19.183-42.849,42.724-42.849
		c23.667,0,42.849,19.183,42.849,42.849C99.283,80.101,80.102,99.283,56.434,99.283z M60.42,81.845c0-2.616-1.62-4.733-3.986-5.48
		V75.99c-10.712,0-19.432-8.72-19.432-19.432h-0.373c-0.748-2.367-2.865-3.986-5.481-3.986c-2.491,0-4.609,1.619-5.356,3.986h-0.499
		c0,0.374,0.125,0.872,0.125,1.246c0,0.249-0.125,0.374-0.125,0.623c0,0.623,0.25,1.246,0.374,1.744
		C27.412,74.744,39.12,86.329,53.943,87.45c0.125,0.124,0.374,0.249,0.623,0.249c0.125,0,0.249-0.125,0.374-0.125
		c0.499,0,0.997,0.125,1.495,0.125v-0.498C58.801,86.453,60.42,84.336,60.42,81.845z"/>
</g>
</svg>
