<?xml version="1.0" encoding="utf-8"?>
<!-- Generator: Adobe Illustrator 16.0.3, SVG Export Plug-In . SVG Version: 6.00 Build 0)  -->
<!DOCTYPE svg PUBLIC "-//W3C//DTD SVG 1.1//EN" "http://www.w3.org/Graphics/SVG/1.1/DTD/svg11.dtd">
<svg version="1.1" id="Warstwa_1" xmlns="http://www.w3.org/2000/svg" xmlns:xlink="http://www.w3.org/1999/xlink" x="0px" y="0px"
	 width="128px" height="128px" viewBox="0 0 128 128" enable-background="new 0 0 128 128" xml:space="preserve">
<path d="M70.539,10.006V7.761c0-3.227-2.617-5.845-5.845-5.845c-3.227,0-5.845,2.618-5.845,5.845v2.246
	C28.275,12.956,4.292,38.776,4.292,70.111c0,2.786,1.968,5.188,4.7,5.73c2.732,0.536,5.469-0.905,6.542-3.481
	c2.047-4.917,6.812-8.095,12.14-8.095c5.327,0,10.092,3.178,12.14,8.095c0.868,2.085,2.861,3.481,5.118,3.588
	c2.348,0.126,4.377-1.091,5.435-3.086c1.868-3.505,4.909-6.104,8.482-7.481v43.698c0,3.225-2.622,5.847-5.845,5.847
	c-3.224,0-5.846-2.622-5.846-5.847c0-3.227-2.618-5.845-5.845-5.845c-3.227,0-5.845,2.618-5.845,5.845
	c0,9.67,7.866,17.536,17.536,17.536s17.535-7.866,17.535-17.536V65.381c3.574,1.378,6.614,3.977,8.482,7.481
	c1.059,1.991,3.083,3.162,5.435,3.086c2.257-0.106,4.252-1.503,5.119-3.588c2.047-4.917,6.812-8.095,12.14-8.095
	c5.327,0,10.092,3.178,12.141,8.095c0.92,2.211,3.07,3.596,5.392,3.596c0.38,0,0.765-0.038,1.148-0.114
	c2.733-0.543,4.7-2.944,4.7-5.73C125.096,38.776,101.114,12.956,70.539,10.006z M101.715,52.575c-6.896,0-13.293,2.82-17.878,7.581
	c-5.1-4.802-11.901-7.581-19.143-7.581c-7.242,0-14.042,2.778-19.142,7.581c-4.586-4.76-10.983-7.581-17.878-7.581
	c-3.162,0-6.219,0.594-9.046,1.693C25.216,35.161,43.379,21.4,64.694,21.4c21.314,0,39.479,13.761,46.066,32.868
	C107.933,53.168,104.877,52.575,101.715,52.575z"/>
</svg>
