<?xml version="1.0" encoding="utf-8"?>
<!-- Generator: Adobe Illustrator 16.0.3, SVG Export Plug-In . SVG Version: 6.00 Build 0)  -->
<!DOCTYPE svg PUBLIC "-//W3C//DTD SVG 1.1//EN" "http://www.w3.org/Graphics/SVG/1.1/DTD/svg11.dtd">
<svg version="1.1" id="Warstwa_1" xmlns="http://www.w3.org/2000/svg" xmlns:xlink="http://www.w3.org/1999/xlink" x="0px" y="0px"
	 width="128px" height="128px" viewBox="0 0 128 128" enable-background="new 0 0 128 128" xml:space="preserve">
<g>
	<path d="M59.017,90.72v12.091H47.298v11.717h11.718v11.718h11.593v-11.718h11.718v-11.717H70.609V90.72
		c22.063-2.868,39.016-21.566,39.016-44.377c0-24.681-20.068-44.75-44.75-44.75C40.069,1.592,20,21.662,20,46.342
		C20,69.153,36.953,87.852,59.017,90.72z M64.875,13.31c18.199,0,33.032,14.833,33.032,33.033c0,18.324-14.833,33.159-33.032,33.159
		c-18.324,0-33.158-14.835-33.158-33.159C31.717,28.143,46.551,13.31,64.875,13.31z"/>
</g>
</svg>
